# xmcd
#
# Track frame offsets:
#	150
#	15827
#	28142
#	41605
#	55320
#	69127
#	84907
#	101065
#	114272
#	124175
#	138200
#	150932
#	162785
#	178687
#	191480
#
# Disc length: 2762 seconds
# Revision: 12
# Processed by: cddbd v1.5.2PL0 Copyright (c) Steve Scherf et al.
# Submitted via: dBpowerAMP V12.0
#
DISCID=ae0ac80f
DTITLE=Nicho Hinojosa - ...En El Bar
DYEAR=2000
DGENRE=Latin Trova
TTITLE0=Santa Lucía
TTITLE1=Te Amo
TTITLE2=Contigo Aprendí
TTITLE3=Y Cómo Es Él
TTITLE4=Cantares
TTITLE5=Lo Que No Fue No Será
TTITLE6=El Breve Espacio
TTITLE7=Ojalá
TTITLE8=Helado De Limón
TTITLE9=Mariposa Tecknicolor
TTITLE10=Quién Te Cantará
TTITLE11=Ay Amor
TTITLE12=Aquellas Pequeñas Cosas
TTITLE13=Coincidir
TTITLE14=Tío Alberto
EXTD=
EXTT0=
EXTT1=
EXTT2=
EXTT3=
EXTT4=
EXTT5=
EXTT6=
EXTT7=
EXTT8=
EXTT9=
EXTT10=
EXTT11=
EXTT12=
EXTT13=
EXTT14=
PLAYORDER=
